<?xml version="1.0" encoding="utf-8" ?><svg xmlns="http://www.w3.org/2000/svg" xmlns:xlink="http://www.w3.org/1999/xlink" width="40" height="40" viewBox="0 0 40 40"><path d="M19.9021 1.80455C19.8333 1.80623 19.7646 1.80922 19.6959 1.81351C18.0264 1.95164 17.443 3.04991 16.6867 4.33235L15.5878 6.18033L10.9898 13.8369L5.50156 22.981L3.59491 26.1608C3.4969 26.3262 3.39971 26.4831 3.3057 26.6347C2.7724 27.4952 2.34124 28.1909 2.44158 29.3594C2.50978 30.1762 2.90079 30.9316 3.52717 31.4564C4.46135 32.2335 5.40388 32.2198 6.49227 32.2041C6.64286 32.2019 6.79624 32.1997 6.95278 32.1996L9.86852 32.1976L20.2832 32.1971L30.3113 32.1976L32.9918 32.1991C33.148 32.1993 33.3017 32.2014 33.4528 32.2034C34.6498 32.2196 35.6923 32.2336 36.6484 31.2688C37.2486 30.6736 37.5822 29.8586 37.5723 29.0111C37.5679 28.5697 37.4565 27.9959 37.2438 27.6069C36.9405 27.0525 36.5943 26.4984 36.2713 25.9556L34.2366 22.569L28.3676 12.7864L24.4302 6.22707L23.304 4.33603C22.7358 3.38865 22.2833 2.48512 21.2123 2.03983C20.7395 1.84328 20.4149 1.79434 19.9021 1.80455ZM29.8781 29.899L20.1269 29.8993L10.2733 29.8984L7.12 29.8992C6.96385 29.8993 6.80067 29.9023 6.63478 29.9053C6.25459 29.9121 5.86019 29.9193 5.50366 29.8932C5.35379 29.8832 5.20836 29.8379 5.07913 29.7609C4.75976 29.5665 4.60334 29.0613 4.7428 28.7356C4.90683 28.3526 5.20076 27.9151 5.41733 27.5535L6.71941 25.3857L10.823 18.5515L16.5968 8.92848L18.2952 6.08811C18.6139 5.55375 18.9366 5.00925 19.2657 4.48111C19.4064 4.2553 19.6432 4.1362 19.8978 4.08556C20.4749 4.04812 20.6822 4.40266 20.9226 4.81388C20.949 4.85892 20.9757 4.90464 21.0034 4.9506L21.5247 5.81735L24.3835 10.5859L31.8141 22.9703L34.0588 26.71C34.3994 27.2799 34.7393 27.8563 35.0888 28.4224C35.428 28.8555 35.3252 29.6682 34.7438 29.8358C34.3813 29.9403 33.8467 29.9234 33.3802 29.9086C33.2266 29.9037 33.0803 29.8991 32.95 29.8991L29.8781 29.899Z"/><path d="M1.90973 34.2425C1.43696 34.178 0.847154 34.1839 0.364923 34.2075C0.300251 34.2128 0.2487 34.2079 0.200023 34.2472C0.158412 34.3931 0.168568 35.4209 0.173779 35.9483C0.174848 36.0565 0.175709 36.1436 0.175873 36.1978C0.176157 36.2918 0.175334 36.4256 0.174421 36.5743C0.172411 36.9013 0.16996 37.3 0.177878 37.5043L1.10086 37.5086C1.1357 37.5085 1.17191 37.5087 1.20924 37.5088C1.68217 37.5101 2.33382 37.512 2.6321 37.112C3.02675 36.6096 2.85053 36.0171 2.2795 35.7588C2.47099 35.6325 2.62636 35.5208 2.67772 35.2816C2.79958 34.7138 2.46141 34.3178 1.90973 34.2425ZM1.73458 35.4195C1.53669 35.4996 1.27827 35.5001 1.06761 35.4919L1.08114 34.9437C1.42231 34.9248 1.99501 34.918 1.73458 35.4195ZM1.07878 36.1405C1.38681 36.1278 2.23359 36.1357 1.82577 36.6673C1.56123 36.7652 1.32322 36.759 1.04784 36.7384C1.06652 36.6192 1.067 36.5148 1.06748 36.4097C1.06788 36.3233 1.06828 36.2364 1.07878 36.1405Z"/><path d="M33.1498 34.1965C33.0431 34.1969 32.9379 34.1973 32.8311 34.2086C32.7802 34.351 32.8013 37.2011 32.8166 37.5053C32.8482 37.5064 32.8805 37.5078 32.9131 37.5091C33.0153 37.5134 33.1206 37.5178 33.2195 37.5166C33.2478 37.5162 33.2791 37.5174 33.3119 37.5186C33.4901 37.5254 33.7103 37.5337 33.701 37.3017C33.689 37.0059 33.6775 36.7128 33.7165 36.419C33.7305 36.4191 33.7444 36.4191 33.7581 36.4191C33.8406 36.4193 33.9189 36.4195 34.0027 36.4293C34.1832 36.7359 34.4279 37.1791 34.586 37.4973L34.8974 37.5031C34.9336 37.5031 34.9755 37.5028 35.0208 37.5024C35.2041 37.5009 35.4426 37.499 35.577 37.5171C35.3616 37.2038 35.061 36.6007 34.8885 36.2401C35.155 36.0127 35.3881 35.8739 35.4009 35.4844C35.4448 34.1542 34.3771 34.1745 33.4073 34.193C33.3581 34.1939 33.3092 34.1949 33.2607 34.1956C33.2235 34.1962 33.1866 34.1963 33.1498 34.1965ZM33.7937 35.668C33.7603 35.6658 33.7264 35.6636 33.6919 35.6619C33.6938 35.6017 33.6937 35.5248 33.6935 35.4428C33.6932 35.2732 33.6929 35.0822 33.7103 34.9739C33.9595 34.9377 34.179 34.956 34.4075 35.0655C34.5504 35.2656 34.5403 35.3883 34.3845 35.5732C34.1978 35.694 34.005 35.6816 33.7937 35.668Z"/><path d="M26.2632 34.208C25.9395 34.1862 25.5648 34.1937 25.2388 34.2033C25.1894 34.2347 25.1561 34.2582 25.1323 34.3142C24.9848 34.6612 24.8756 35.0475 24.7526 35.4062C24.5955 35.8539 24.4423 36.303 24.293 36.7534C24.2878 36.7693 24.279 36.7942 24.2681 36.8256C24.2017 37.0156 24.0535 37.4401 24.0899 37.4983C24.2108 37.5287 24.6227 37.5196 24.8557 37.5145C24.9016 37.5135 24.9405 37.5126 24.9689 37.5122C25.0882 37.2751 25.1291 37.0581 25.2238 36.857C25.2665 36.8557 25.3166 36.8538 25.3714 36.8517C25.6462 36.8414 26.0415 36.8266 26.2352 36.8521C26.2915 37.0736 26.3564 37.2794 26.4254 37.497C26.4545 37.498 26.494 37.5 26.5406 37.5023C26.8067 37.5156 27.3031 37.5403 27.4098 37.4642C27.4087 37.4439 27.41 37.4389 27.4082 37.4354C27.4065 37.4319 27.4016 37.4299 27.3878 37.4148C27.2291 37.2412 26.4917 34.697 26.2632 34.208ZM25.4959 36.1289C25.4727 36.1286 25.4499 36.1283 25.4283 36.1281C25.531 35.8402 25.5703 35.6025 25.7089 35.3257C25.8023 35.3884 25.95 35.9694 25.9967 36.1196C25.898 36.1268 25.7973 36.1262 25.6982 36.1273C25.636 36.1308 25.5638 36.1298 25.4959 36.1289Z"/><path d="M5.16486 34.2071C4.85539 34.1885 4.45913 34.1909 4.14772 34.2032C4.09174 34.2374 4.05853 34.2594 4.03111 34.3215C3.88601 34.6499 3.79458 35.0067 3.67644 35.3457C3.43842 36.0288 3.19509 36.7086 2.989 37.4023C2.9812 37.4285 2.97672 37.4601 2.97246 37.4872C3.0479 37.5143 3.15019 37.514 3.24627 37.5138C3.29621 37.5137 3.34448 37.5135 3.38643 37.5173C3.90742 37.5638 3.93929 37.4508 4.02062 37.1626C4.0448 37.077 4.07334 36.9758 4.1204 36.8588C4.14821 36.8585 4.19261 36.8579 4.24773 36.8572C4.51936 36.8534 5.05154 36.846 5.14469 36.8644C5.18967 37.0938 5.26677 37.2748 5.33015 37.4945C5.36485 37.4962 5.40026 37.4981 5.43618 37.5C5.68112 37.5128 5.9503 37.527 6.18766 37.51C6.23102 37.5068 6.32792 37.4668 6.38319 37.4532C6.35106 37.3991 6.30037 37.4501 6.25468 37.355C6.10136 37.036 5.98682 36.6391 5.87753 36.3008C5.73719 35.8712 5.59367 35.4426 5.44698 35.015C5.36331 34.7686 5.26146 34.4441 5.16486 34.2071ZM4.60449 36.1245L4.33226 36.1196C4.3986 35.9112 4.51548 35.4997 4.60427 35.3229L4.64718 35.3424C4.69497 35.4339 4.85893 35.9971 4.89796 36.1242C4.81587 36.1284 4.73446 36.1269 4.65251 36.1253C4.63653 36.125 4.62052 36.1247 4.60449 36.1245Z"/><path d="M15.354 35.2963C15.3322 34.5037 14.652 34.1158 13.9333 34.1883C13.1788 34.2375 12.7338 34.5712 12.7763 35.3837C12.8232 36.2824 14.3825 36.0446 14.5027 36.5606C14.4426 36.8528 13.8205 36.7821 13.6076 36.6177C13.5782 36.5359 13.5358 36.3752 13.468 36.3375C13.3138 36.3053 12.7997 36.286 12.6597 36.3744C12.6319 36.4581 12.6509 36.5096 12.6742 36.5728C12.6832 36.597 12.6927 36.6229 12.7005 36.653C12.8883 37.3747 13.4212 37.4906 14.0747 37.5238C14.4392 37.5126 14.8592 37.4693 15.1139 37.1873C15.6693 36.5594 15.354 35.8443 14.6241 35.5904C14.417 35.5182 14.1266 35.4619 13.9328 35.3926C13.1967 35.1292 14.2486 34.606 14.5198 35.2615C14.6396 35.3521 15.1932 35.3118 15.354 35.2963Z"/><path d="M31.1177 34.1963C30.8131 34.1946 30.4979 34.1929 30.2117 34.2067C30.1881 34.2135 30.1315 34.2228 30.13 34.2407C30.0954 34.6447 30.1011 35.1771 30.1062 35.6624C30.1088 35.9059 30.1112 36.1375 30.1084 36.335C30.1055 36.5363 30.1007 36.7044 30.0962 36.8598C30.09 37.0768 30.0845 37.2689 30.0859 37.4918C30.2557 37.5097 30.5949 37.5056 30.8658 37.5023C30.9672 37.5011 31.0591 37.5 31.1289 37.5002C31.1592 37.5003 31.208 37.5007 31.2692 37.5013C31.5994 37.5042 32.292 37.5103 32.4123 37.4829C32.4515 37.3984 32.4552 37.1625 32.4583 36.9696C32.4596 36.8877 32.4608 36.8136 32.4645 36.762C32.2304 36.738 31.9224 36.7407 31.617 36.7434C31.3978 36.7453 31.18 36.7471 30.9918 36.7392L30.9923 36.2958C30.9979 36.2644 30.9963 36.228 31.0182 36.2244C31.2199 36.1907 31.511 36.1934 31.7884 36.1961C31.9945 36.198 32.193 36.1999 32.3418 36.1867C32.3174 35.9462 32.3274 35.6811 32.345 35.44C32.1377 35.433 31.9274 35.4353 31.7178 35.4376C31.4746 35.4403 31.2323 35.443 30.9962 35.4311L30.9943 34.986C31.2779 34.9729 31.5618 34.9649 31.8458 34.962C31.8883 34.9614 31.9332 34.9614 31.9793 34.9614C32.133 34.9615 32.3004 34.9615 32.4374 34.9398C32.453 34.6927 32.4478 34.4505 32.4632 34.211C32.238 34.1915 31.9168 34.194 31.6505 34.1962C31.5905 34.1966 31.5334 34.1971 31.4807 34.1973C31.3632 34.1977 31.2413 34.197 31.1177 34.1963Z"/><path d="M22.9291 35.4751C22.7762 34.4969 22.1656 34.1303 21.2126 34.2045C20.0992 34.4178 19.7474 35.2174 19.9128 36.2905C19.9667 36.6398 20.2669 37.1113 20.5665 37.2909C21.5059 37.854 22.7917 37.4237 22.9465 36.2765C22.741 36.2456 22.5821 36.2384 22.3734 36.2432C22.2529 36.2487 22.1729 36.2513 22.0539 36.2722C21.9706 36.4467 21.9387 36.5448 21.7975 36.6763C21.5748 36.7267 21.2838 36.7573 21.0858 36.6179C20.6851 36.3354 20.7007 35.5994 20.9528 35.2193C21.1208 34.9659 21.5498 34.8918 21.8043 35.0605C21.9394 35.1501 21.9953 35.3506 22.0669 35.4926C22.3726 35.493 22.6252 35.4922 22.9291 35.4751Z"/><path d="M38.0689 34.1923C37.4778 34.18 36.8261 34.1665 36.2696 34.1908C36.2096 34.193 36.1472 34.1897 36.0857 34.1864C35.765 34.1694 35.4669 34.1535 35.6346 34.9279C35.6449 34.9755 36.374 34.9519 36.5843 34.9771C36.5769 35.5263 36.5748 36.0756 36.578 36.6248C36.5781 36.6756 36.5776 36.7371 36.5771 36.8045C36.5753 37.0442 36.5729 37.3576 36.5924 37.5243C36.748 37.5119 37.3631 37.5152 37.4352 37.4637C37.4653 37.371 37.4594 37.2693 37.4515 37.1719C37.4603 36.7914 37.458 36.4109 37.4556 36.0304C37.4541 35.7833 37.4525 35.5362 37.4541 35.2892C37.4543 35.2561 37.454 35.223 37.4537 35.1898C37.453 35.1159 37.4524 35.0419 37.4571 34.9683C37.6399 34.9584 37.8224 34.9581 38.0044 34.9579C38.1447 34.9577 38.2847 34.9575 38.4245 34.9529C38.4368 34.76 38.4456 34.3914 38.4318 34.1996C38.3145 34.1975 38.193 34.1949 38.0689 34.1923Z"/><path d="M16.638 34.1972C16.3129 34.1942 15.9812 34.1912 15.6748 34.202C15.6357 34.2188 15.5922 34.2268 15.5823 34.2678C15.5517 34.395 15.5503 34.5603 15.549 34.716C15.5483 34.7985 15.5476 34.8782 15.5427 34.9481C15.6832 34.9568 15.8226 34.9573 15.9614 34.9578C16.1544 34.9584 16.3463 34.9591 16.5382 34.982C16.5178 35.3943 16.5215 35.8135 16.5253 36.2318C16.5279 36.5278 16.5305 36.8234 16.5246 37.116C16.5221 37.2393 16.5229 37.3854 16.5311 37.5077C16.8058 37.5064 17.1116 37.5069 17.386 37.4979C17.3898 37.2224 17.3915 36.9468 17.3913 36.6714C17.3835 36.1048 17.3884 35.5381 17.406 34.9718C17.7315 34.963 18.0572 34.9577 18.3829 34.9557L18.3824 34.2155C18.087 34.193 17.6944 34.1959 17.358 34.1984C17.2858 34.1989 17.2163 34.1995 17.1509 34.1997C16.9851 34.2003 16.8125 34.1987 16.638 34.1972Z"/><path d="M9.65276 34.1996C9.44608 34.1984 9.23105 34.1971 9.03794 34.2052C8.99319 34.3223 8.99993 34.7552 9.00492 35.0756C9.00688 35.202 9.00858 35.311 9.00673 35.3761C9.00001 35.6117 9.00338 35.8717 9.00683 36.1376C9.01287 36.6031 9.01915 37.0867 8.97196 37.4904C9.21352 37.5269 9.57912 37.5187 9.91686 37.511C10.1023 37.5068 10.2793 37.5028 10.4227 37.5065C10.5476 37.5097 11.0994 37.5082 11.2124 37.4961C11.2259 37.3975 11.2244 37.2173 11.2229 37.0501C11.2221 36.95 11.2212 36.8547 11.2237 36.7844C11.0005 36.7359 10.4446 36.7422 10.0844 36.7463C10.01 36.7471 9.94402 36.7479 9.89099 36.748C9.88978 36.4309 9.89208 36.1025 9.8944 35.772C9.89813 35.2404 9.90189 34.7036 9.89113 34.2004C9.8142 34.2005 9.73412 34.2 9.65276 34.1996Z"/><path d="M7.36604 34.2027C7.10874 34.1987 6.83378 34.1945 6.57843 34.2033C6.50414 34.2902 6.51504 34.6213 6.52185 34.8282C6.52333 34.8731 6.52461 34.9122 6.52479 34.9417C6.52892 35.4727 6.5299 36.0038 6.52772 36.5348C6.52637 36.7399 6.52339 37.3069 6.483 37.4897C6.91562 37.5357 7.43215 37.525 7.92753 37.5148C8.19185 37.5093 8.45015 37.504 8.68646 37.5075C8.69078 37.5041 8.69505 37.5009 8.69922 37.4978C8.72816 37.4762 8.75204 37.4584 8.75024 37.4105L8.74917 37.3823C8.74159 37.1821 8.7339 36.9792 8.73725 36.7799C8.56381 36.7408 8.04103 36.744 7.67084 36.7463C7.55225 36.747 7.44932 36.7476 7.37855 36.7467C7.41429 36.322 7.40667 35.8208 7.39908 35.3211C7.39322 34.9357 7.38738 34.5512 7.40144 34.2032L7.36604 34.2027Z"/><path d="M28.4611 34.2038C28.2154 34.1975 27.8944 34.1895 27.6497 34.2052C27.6373 34.2207 27.625 34.2362 27.6126 34.2518C27.6133 34.4159 27.6145 34.5799 27.6157 34.744C27.6183 35.1047 27.6209 35.4653 27.6182 35.8262C27.6165 36.0513 27.6062 36.2759 27.5959 36.5004C27.5808 36.8301 27.5657 37.1597 27.5778 37.4903C27.8419 37.5136 28.1167 37.5067 28.3899 37.4999C28.5718 37.4953 28.753 37.4908 28.93 37.4952C29.0393 37.4979 29.1497 37.495 29.2604 37.4921C29.4379 37.4874 29.616 37.4828 29.7906 37.5013C29.8448 37.3794 29.877 36.7969 29.7485 36.7775C29.483 36.7373 29.1995 36.7415 28.9179 36.7457C28.7621 36.748 28.607 36.7503 28.4559 36.7451C28.4941 36.4242 28.4827 36.0104 28.472 35.6227C28.4667 35.4287 28.4615 35.2412 28.4629 35.0752C28.4635 35.0003 28.4651 34.9226 28.4667 34.8436C28.4711 34.6285 28.4758 34.4042 28.4611 34.2038Z"/><path d="M19.4057 34.2016C19.1794 34.1972 18.9032 34.1918 18.7035 34.2086L18.6685 34.2346C18.6346 34.4607 18.6476 35.485 18.6544 35.7638C18.6615 36.058 18.659 36.3642 18.6565 36.669C18.6541 36.9583 18.6517 37.2464 18.6577 37.5218C18.8571 37.5042 19.1001 37.5087 19.319 37.5128C19.3687 37.5137 19.4171 37.5146 19.4634 37.5152C19.5249 37.4593 19.5363 37.4161 19.5364 37.3267C19.5367 37.1919 19.5352 37.057 19.5337 36.9221C19.5322 36.7911 19.5308 36.6601 19.5309 36.5291C19.5247 35.754 19.5257 34.979 19.5339 34.2039C19.4938 34.2033 19.4508 34.2025 19.4057 34.2016Z"/><path d="M12.3903 34.2009C12.1278 34.1973 11.8651 34.1987 11.6025 34.2049C11.5671 34.2189 11.5276 34.2246 11.5256 34.2502C11.4913 34.7098 11.5006 35.3053 11.5098 35.8941C11.5189 36.4804 11.528 37.0601 11.4937 37.4925C11.7728 37.5166 12.0533 37.5185 12.3333 37.5147C12.3812 37.4433 12.3779 36.5004 12.3748 35.6319C12.3725 34.9787 12.3704 34.3676 12.3903 34.2009Z"/><path d="M39.717 34.1995C39.4156 34.197 39.1143 34.1985 38.8129 34.2039C38.804 34.366 38.8171 34.6202 38.828 34.832C38.8312 34.895 38.8343 34.9542 38.8365 35.0062C38.8577 35.5012 38.8566 36.0502 38.8936 36.5413C38.9592 36.5486 39.0828 36.5531 39.1308 36.5877C39.0447 36.7098 38.8952 36.6785 38.8204 36.9666C38.7912 37.0791 38.81 37.1988 38.8722 37.2968C38.9825 37.471 39.1095 37.5007 39.2884 37.5446C39.4081 37.5053 39.4749 37.487 39.5783 37.407C39.6842 37.2986 39.7169 37.2426 39.7247 37.08C39.731 36.9497 39.6414 36.7641 39.5469 36.6773C39.5234 36.6556 39.4708 36.636 39.4238 36.5954L39.4484 36.5663C39.4747 36.5664 39.4963 36.5683 39.5152 36.5699C39.5633 36.574 39.5936 36.5765 39.6375 36.5462C39.6803 36.4397 39.7244 34.4149 39.717 34.1995Z"/><path d="M18.3777 14.1456C18.611 14.1937 18.8752 14.2964 19.1222 14.3507C20.0702 14.559 20.6748 14.4204 21.573 14.1605C21.595 14.8124 21.5567 15.4983 21.5594 16.1528C21.5607 16.4906 21.5633 16.8278 21.5573 17.166L21.5453 17.8946C21.544 17.9628 21.5379 18.0049 21.533 18.069C21.5302 18.1045 21.5473 18.1548 21.5443 18.213C21.484 18.2742 21.5432 18.2454 21.5404 18.3141C21.5287 18.5962 21.5477 18.8803 21.5205 19.1615C21.5168 19.2003 21.5355 19.2697 21.5342 19.3156C21.493 20.9662 21.4698 22.6171 21.4645 24.2682C21.4622 24.6718 21.4573 25.0754 21.4497 25.4788C21.0485 25.4843 20.6354 25.467 20.2332 25.4622L18.2657 25.4484C18.2582 25.3037 18.2697 25.0417 18.2718 24.8866L18.2901 23.6597L18.3266 19.7497L18.3661 15.7166C18.3713 15.4022 18.3738 15.0879 18.3738 14.7735C18.3735 14.5827 18.3658 14.3321 18.3777 14.1456Z"/><path d="M19.9801 6.96136C20.0778 7.05113 20.3002 7.43835 20.3703 7.56327C21.077 8.82196 21.5005 10.255 21.6566 11.6871C21.6827 11.9267 21.7221 12.1922 21.7224 12.432C21.6506 12.4449 21.5671 12.4753 21.4942 12.4957C21.3794 12.5266 21.264 12.5555 21.1482 12.5824C20.8459 12.6525 20.356 12.7135 20.047 12.7239C19.4024 12.7439 18.8517 12.6157 18.2556 12.3791C18.3644 10.8028 18.6962 9.3486 19.4103 7.93078C19.5471 7.6592 19.799 7.19567 19.9801 6.96136Z"/><path d="M21.7513 19.7491C21.8982 19.8265 22.0313 20.0543 22.1321 20.1806C22.4049 20.5229 22.6731 20.8527 22.9609 21.1828C23.194 21.45 23.4094 21.7716 23.6352 22.0466C23.9397 22.4214 24.2575 22.7877 24.5449 23.1757C24.5572 23.9151 24.5081 24.6571 24.5197 25.3968C24.5202 25.434 24.5286 25.4041 24.5086 25.4472C24.5213 25.4952 24.508 25.691 24.4987 25.7435C24.366 25.7198 24.0729 25.5781 23.9378 25.5165L23.1877 25.1739C22.7063 24.9544 22.177 24.7376 21.7092 24.5008C21.6911 23.6361 21.7149 22.7227 21.7256 21.8574L21.745 20.4517C21.7478 20.2208 21.7432 19.9783 21.7513 19.7491Z"/><path d="M18.0809 19.8294C18.1015 19.8592 18.0836 20.3907 18.0827 20.4686L18.0692 21.9062L18.0606 23.5999C18.057 23.8517 18.06 24.1787 18.0397 24.4256C17.9006 24.481 17.7117 24.5838 17.5698 24.6495L16.2254 25.2843C15.9911 25.3965 15.7503 25.4977 15.5162 25.6103C15.4053 25.6636 15.2824 25.7149 15.178 25.7787L15.1624 25.7675C15.1547 25.7393 15.1867 25.2491 15.1891 25.1777L15.2503 23.0356C15.3887 22.8534 15.6123 22.6289 15.7651 22.4519C16.0059 22.1731 16.2514 21.8964 16.4949 21.6201C16.8934 21.1603 17.2979 20.7057 17.7082 20.2565C17.8274 20.1247 17.9649 19.9469 18.0809 19.8294Z"/><path d="M18.2475 12.6241C18.3167 12.6383 18.4859 12.698 18.5636 12.7219C18.7409 12.7756 18.9201 12.8228 19.101 12.8635C19.9787 13.0559 20.8778 12.9023 21.73 12.6633C21.678 13.046 21.6393 13.4303 21.6141 13.8156C21.61 13.8823 21.5986 13.9098 21.5312 13.9352C21.09 14.1017 20.6308 14.185 20.1619 14.2138C19.5459 14.2515 18.9524 14.0881 18.3708 13.9076C18.3383 13.479 18.2971 13.0511 18.2475 12.6241Z"/><path d="M19.2092 25.7041L20.532 25.718C20.5421 26.1513 20.5408 26.8674 20.4586 27.2833C20.3894 27.6336 20.1621 28.252 20.0335 28.5902C19.9726 28.7445 19.8729 28.9442 19.8259 29.0964C19.5339 28.4884 19.2711 27.7153 19.2092 27.0413C19.1882 26.813 19.198 26.5037 19.2002 26.2728C19.2012 26.1673 19.1907 25.7861 19.2092 25.7041Z"/></svg>