<?xml version="1.0" encoding="utf-8" ?><svg xmlns="http://www.w3.org/2000/svg" xmlns:xlink="http://www.w3.org/1999/xlink" width="40" height="40" viewBox="0 0 40 40"><clipPath id="cl_3"><path d="M0.000154495 40.1899L0.000154495 0.000110626L40.2088 0.000110626L40.2088 40.1899L0.000154495 40.1899Z"/></clipPath><g clip-path="url(#cl_3)"><path fill="#212021" transform="matrix(5.38493e-18 -0.0879426 0.0922216 5.64694e-18 3.41235 47.1373)" d="M450.122 162.178C456.255 162.14 464.837 161.842 470.778 162.284C469.137 173.724 470.045 185.816 469.744 197.31C469.697 199.088 470.298 211.604 470.276 211.68C467.876 212.451 452.919 211.153 448.84 211.219C374.944 212.031 301.042 212.193 227.143 211.707C217.602 211.702 208.004 211.128 198.615 211.173C191.415 211.067 184.217 210.823 177.026 210.443C177.171 194.693 177.137 178.943 176.923 163.194C183.772 163.329 189.657 162.276 196.093 162.253C212.038 162.197 228.025 162.244 243.972 162.244L450.122 162.178Z"/><path fill="#212021" transform="matrix(5.38493e-18 -0.0879426 0.0922216 5.64694e-18 3.41235 47.1373)" d="M95.2156 123.291C98.8904 123.014 106.142 122.8 109.685 123.718C110.257 123.866 111.244 124.357 111.569 124.849C114.458 129.222 117.035 134.879 119.408 139.573L134.035 168.43C146.494 167.622 159.735 164.964 172.671 163.904C171.41 177.924 172.296 191.865 172.032 205.889C172.024 206.329 172.024 209.065 171.75 209.262C169.722 210.712 138.576 205.939 134.277 204.85C132.767 207.298 131.567 210.024 130.405 212.647C127.142 219.547 122.653 227.134 119.335 234.242C117.882 237.354 112.885 247.441 111.279 249.77C110.315 249.912 109.344 250.004 108.371 250.043C105.954 250.118 91.6914 250.551 90.811 249.731C90.146 244.997 90.3148 238.569 89.9572 233.533L88.4741 211.049C88.2067 206.968 87.6661 201.448 87.7844 197.519L80.7268 196.257C80.2971 193.282 80.4268 181.127 80.5295 177.784C82.6231 177.17 85.8426 176.867 88.2836 176.293C87.8055 169.408 88.5359 161.416 89.0416 154.486C89.8091 143.967 90.2077 134.253 90.393 123.728C91.8878 123.517 93.6889 123.416 95.2156 123.291Z"/><path fill="#212021" transform="matrix(5.38493e-18 -0.0879426 0.0922216 5.64694e-18 3.41235 47.1373)" d="M476.042 162.13C491.765 161.354 520.433 168.717 530.011 182.764C535.152 190.304 523.584 198.059 517.998 201.279C510.502 205.909 498.897 209.174 490.23 210.315C484.957 211.009 479.927 211.141 474.607 212.258C475.491 207.516 475.308 201.459 475.353 196.559C475.503 187.735 475.355 178.907 474.909 170.093C474.818 168.546 474.335 163.483 474.846 162.49L476.042 162.13Z"/></g></svg>