<?xml version="1.0" encoding="utf-8" ?><svg xmlns="http://www.w3.org/2000/svg" xmlns:xlink="http://www.w3.org/1999/xlink" width="40" height="40" viewBox="0 0 40 40"><path transform="scale(0.0402415 0.0402415)" d="M474.172 7.07221C566.829 1.4571 674.715 29.3531 752.778 79.6347C746.961 85.8735 739.631 92.832 733.525 98.9528C721.648 110.947 709.674 122.846 697.606 134.648C692.544 132.511 684.107 127.693 678.839 125.025C669.077 120.079 659.095 115.581 648.922 111.546C547.504 70.7706 434.029 72.0253 333.537 115.033C231.487 158.528 151.026 240.965 110.02 344.04C69.7755 445.463 71.1933 558.672 113.966 659.054C157.357 760.546 239.27 840.657 341.702 881.781C443.467 922.495 557.197 921.355 658.126 878.61C760.432 834.998 841.064 752.306 882.083 648.933C914.676 566.322 919.803 475.412 896.705 389.661C890.705 367.559 883.687 349.271 874.732 328.419C869.567 317.125 863.955 306.042 857.907 295.195C863.865 289.881 870.739 282.655 876.467 276.935L913.311 239.964C919.346 249.207 925.744 261.066 930.898 270.873C963.781 333.781 982.531 403.109 985.839 474.015C991.839 603.601 946.119 730.262 858.735 826.139C771.309 922.544 649.08 980.149 519.079 986.218C389.3 992.411 262.394 946.692 166.381 859.158C69.2049 771.261 11.4204 648.006 6.01128 517.087C0.564533 388.011 46.5027 262.038 133.761 166.768C221.418 70.3027 343.955 12.8173 474.172 7.07221Z"/><path transform="scale(0.0402415 0.0402415)" d="M493.129 157.49C546.408 157.806 593.61 167.165 641.984 190.401C635.61 197.305 627.426 205.071 620.686 211.783L584.319 247.937C536.136 231.716 490.634 227.874 440.498 238.55C371.457 253.48 311.241 295.37 273.232 354.909C235.697 413.347 222.928 484.307 237.735 552.164C252.629 621.151 294.504 681.311 354.027 719.233C413.334 757.166 485.347 769.807 554.028 754.342C621.775 738.984 680.772 697.613 718.294 639.151C753.866 583.88 767.437 517.287 756.333 452.503C754.82 443.534 752.795 434.658 750.267 425.92C748.748 420.641 746.366 413.852 745.25 408.651L745.145 408.138C750.25 402.965 799.751 352.611 802.573 351.274L803.53 352.993C823.151 392.4 834.168 443.784 835.277 487.524C837.796 577.596 804.237 664.943 742.055 730.155C679.932 795.809 594.115 833.865 503.75 835.833C413.525 837.968 326.186 803.965 261.157 741.385C196.429 679.656 158.851 594.759 156.676 505.342C154.261 415.435 187.847 328.285 249.975 263.252C315.814 194.952 398.38 159.288 493.129 157.49Z"/><path transform="scale(0.0402415 0.0402415)" d="M489.141 308.417C499.987 307.895 510.856 308.711 521.502 310.848C499.016 332.796 476.599 355.755 454.296 377.995L428.305 403.919C418.553 413.671 406.85 424.972 399.655 436.624C391.204 450.31 384.4 472.337 383.146 488.129C380.788 517.805 390.467 547.182 410.002 569.644C440.526 605.077 491.75 619.954 535.316 602.424C540.691 600.262 545.085 599.35 550.381 596.411C569.306 585.909 583.789 569.422 598.898 554.225L651.683 501.49C659.427 493.707 673.725 478.469 681.608 471.762L682.129 471.322C687.733 509.202 682.659 537.766 668.478 572.86C660.137 591.508 648.865 608.702 635.091 623.789C601.592 660.524 554.89 682.47 505.23 684.815C454.791 687.359 405.449 669.506 368.314 635.278C331.67 601.702 309.869 554.942 307.707 505.288C305.396 455.821 322.724 407.443 355.918 370.693C390.074 332.769 438.138 310.301 489.141 308.417Z"/><path transform="scale(0.0402415 0.0402415)" d="M921.557 17.3032C927.147 22.2861 934.125 29.6862 939.513 35.0879C951.491 47.2641 963.583 59.3273 975.789 71.2759L684.286 362.615L573.306 473.527L539.112 507.726C530.044 516.816 522.65 526.054 510.888 531.533C505.516 533.24 502.256 534.262 496.5 534.3C486.382 534.414 476.645 530.447 469.487 523.295C456.12 509.953 454.436 487.363 466.62 472.346C472.396 465.226 480.409 458.089 487.026 451.52L518.946 419.619L615.258 323.378L921.557 17.3032Z"/></svg>